<?xml version="1.0" encoding="utf-8"?>
<!-- Made by Synel - SVG Version: 6.00 Build 0)  -->
<svg version="1.1" id="Layer_1" xmlns="http://www.w3.org/2000/svg" xmlns:xlink="http://www.w3.org/1999/xlink" x="0px" y="0px"
	 viewBox="0 0 512 512" style="enable-background:new 0 0 512 512;" xml:space="preserve">
<style type="text/css">
	.st0{fill:#273B7A;}
	.st1{fill:#121149;}
	.st2{fill:#898989;}
	.st3{fill:#69696B;}
	.st4{fill:#DBDBDD;}
	.st5{fill:#C1C1C1;}
	.st6{fill:#263A7A;}
	.st7{fill:#0C0C42;}
</style>
<circle class="st0" cx="256" cy="256" r="256"/>
<path class="st1" d="M512,254.7l-87.2-87.2L130.6,334.5l173.1,173.1C422.3,485.2,512,381.1,512,256C512,255.6,512,255.1,512,254.7z"
	/>
<path class="st2" d="M172,230c14.4-15.7,11.2-39.3-7.3-52.6c-12.7-9.2-48-12.1-68.5-13c-8-0.4-13.8,6-11.9,12.9
	c5.1,17.7,15.4,82.2,28.1,91.5C130.9,282.1,157.6,245.7,172,230z"/>
<path class="st3" d="M340,230c-14.4-15.7-11.2-39.3,7.3-52.6c12.7-9.2,48-12.1,68.5-13c8-0.4,13.8,6,11.9,12.9
	c-5.1,17.7-15.4,82.2-28.1,91.5C381.1,282.1,354.4,245.7,340,230z"/>
<path class="st4" d="M404.7,274c0,70-66.6,100.8-148.7,100.8S107.3,344,107.3,274S173.9,147,256,147S404.7,204.1,404.7,274z"/>
<path class="st5" d="M404.7,274c0-70-66.6-127-148.7-127v227.9C338.1,374.9,404.7,344,404.7,274z"/>
<g>
	<circle class="st1" cx="197.7" cy="277.3" r="10.4"/>
	<circle class="st1" cx="314.3" cy="277.3" r="10.4"/>
</g>
<path class="st6" d="M267.8,345h-6v-27.4c0-3.2-2.6-5.8-5.8-5.8s-5.8,2.6-5.8,5.8V345h-6c-3.2,0-5.8,2.6-5.8,5.8
	c0,3.2,2.6,5.8,5.8,5.8h23.6c3.2,0,5.8-2.6,5.8-5.8C273.6,347.6,271,345,267.8,345z"/>
<path class="st1" d="M267.8,345h-6v-27.4c0-3.2-2.6-5.8-5.8-5.8v44.8h11.8c3.2,0,5.8-2.6,5.8-5.8C273.6,347.6,271,345,267.8,345z"/>
<path class="st3" d="M299.3,207l29.3-43.7c-8.4-4.1-17.4-7.4-26.7-10l-12.2,48.9C288.2,208.3,295.8,212.2,299.3,207z"/>
<g>
	<path class="st2" d="M211.4,207c3.5,5.2,11.2,1.4,9.6-4.8l-12.1-48.6c-9.3,2.7-18.1,6.1-26.5,10.2L211.4,207z"/>
	<path class="st2" d="M262.3,227.6l13.6-79.5c-6.5-0.8-13.2-1.2-19.9-1.2c-7.2,0-14.3,0.5-21.2,1.3l13.6,79.3
		C249.8,235.9,260.9,235.9,262.3,227.6z"/>
</g>
<path class="st3" d="M256,147v86.8c2.9-0.3,5.7-2.3,6.3-6.2l13.6-79.5C269.4,147.4,262.8,147,256,147z"/>
<path class="st1" d="M245,318.6l-11.2-14.5c-5.6-7.2,0.7-16.5,11-16.5h22.5c10.3,0,16.5,9.4,11,16.5L267,318.6
	C261.8,325.2,250.2,325.2,245,318.6z"/>
<path class="st7" d="M267.2,287.6H256v36c4.2,0,8.4-1.6,11-4.9l11.2-14.5C283.8,297,277.5,287.6,267.2,287.6z"/>
</svg>
