<?xml version="1.0" encoding="utf-8"?>
<!-- Made by Synel - SVG Version: 6.00 Build 0)  -->
<svg version="1.1" id="Layer_1" xmlns="http://www.w3.org/2000/svg" xmlns:xlink="http://www.w3.org/1999/xlink" x="0px" y="0px"
	 viewBox="0 0 512 512" style="enable-background:new 0 0 512 512;" xml:space="preserve">
<style type="text/css">
	.st0{fill:#263A7A;}
	.st1{fill:#121149;}
	.st2{fill:#E2E2E2;}
	.st3{fill:#A8A8A8;}
	.st4{fill:#FFFFFF;}
	.st5{fill:#FFC61B;}
	.st6{fill:#D19809;}
	.st7{fill:#FF5419;}
	.st8{fill:#940030;}
	.st9{fill:#FFEDB5;}
	.st10{fill:#7F7F7F;}
</style>
<circle class="st0" cx="256" cy="256" r="256"/>
<path class="st1" d="M116.8,326.7l181.8,181.8C419.7,488.2,512,382.9,512,256c0-10.2-0.6-20.3-1.8-30.2L394,109.8L116.8,326.7z"/>
<rect x="213.3" y="326.7" class="st2" width="85.3" height="56.9"/>
<rect x="255.4" y="326.7" class="st3" width="43.2" height="56.9"/>
<path class="st4" d="M383.1,332.7H128.9c-8.3,0-15.1-6.8-15.1-15.1V120.2c0-8.3,6.8-15.1,15.1-15.1h254.3c8.3,0,15.1,6.8,15.1,15.1
	v197.4C398.2,326,391.5,332.7,383.1,332.7z"/>
<path class="st2" d="M383.1,105.2H255.4v227.6h127.7c8.3,0,15.1-6.8,15.1-15.1V120.2C398.2,111.9,391.5,105.2,383.1,105.2z"/>
<rect x="125.8" y="118.6" class="st5" width="260.3" height="162.7"/>
<rect x="255.4" y="118.6" class="st6" width="130.7" height="162.7"/>
<rect x="142.2" y="133.6" class="st7" width="227.6" height="56.9"/>
<rect x="255.4" y="133.6" class="st8" width="114.3" height="56.9"/>
<rect x="284.4" y="204.3" class="st9" width="85.3" height="56.9"/>
<path class="st3" d="M316.8,398.2H195.2c-5.7,0-10.3-4.6-10.3-10.3l0,0c0-5.7,4.6-10.3,10.3-10.3h121.5c5.7,0,10.3,4.6,10.3,10.3
	l0,0C327.1,393.6,322.5,398.2,316.8,398.2z"/>
<path class="st10" d="M316.8,377.5h-61.3v20.7h61.3c5.7,0,10.3-4.6,10.3-10.3S322.5,377.5,316.8,377.5z"/>
<g>
	<circle class="st3" cx="256" cy="305.1" r="7.8"/>
	<path class="st3" d="M256,297.4c-0.2,0-0.4,0-0.6,0.1v15.4c0.2,0,0.4,0.1,0.6,0.1c4.3,0,7.8-3.5,7.8-7.8S260.3,297.4,256,297.4z"/>
</g>
</svg>
