<?xml version="1.0" encoding="utf-8"?>
<!-- Made by Synel - SVG Version: 6.00 Build 0)  -->
<svg version="1.1" id="Layer_1" xmlns="http://www.w3.org/2000/svg" xmlns:xlink="http://www.w3.org/1999/xlink" x="0px" y="0px"
	 viewBox="0 0 512 512" style="enable-background:new 0 0 512 512;" xml:space="preserve">
<style type="text/css">
	.st0{fill:#1FDBE2;}
	.st1{fill:#22BFBF;}
	.st2{fill:#D35933;}
	.st3{fill:#FFC61B;}
	.st4{fill:#F4A200;}
	.st5{fill:#59595B;}
	.st6{fill:#EAA22F;}
	.st7{fill:#E09112;}
</style>
<circle class="st0" cx="256" cy="256" r="256"/>
<path class="st1" d="M302.1,507.9c103.4-18.8,185.2-99.7,205.2-202.7L381.8,179.7l-20.4,15.1l-33.6-33.6l-15.4,23.5l26.7,26.7
	l-113.5,83.9l-74.7-74.7l5.1,25.8l-57.2-57.2l7.3,35.2l102,102l-76.2,11.2L302.1,507.9z"/>
<g>
	<path class="st2" d="M333.6,179.7h48.3c0,0-5.1,24.1-24.1,24.1s-24.1,0-24.1,0L333.6,179.7L333.6,179.7z"/>
	<path class="st2" d="M336.2,218.3h34.1c0,0-3.6-17.1-17.1-17.1s-17.1,0-17.1,0L336.2,218.3z"/>
</g>
<path class="st3" d="M326.3,246.1h-2.8c11.6-11.4,18.8-27.3,18.8-44.8c0-34.8-28.2-62.9-62.9-62.9s-62.9,28.2-62.9,62.9
	c0,17.5,7.2,33.4,18.8,44.8H184c0,0-51.1,0-85.3-56.9c0,0-15.8,170.7,85.3,170.7h142.2c31.4,0,56.9-25.5,56.9-56.9l0,0
	C383.2,271.6,357.7,246.1,326.3,246.1z"/>
<path class="st4" d="M326.3,246.1h-2.8c11.6-11.4,18.8-27.3,18.8-44.8c0-34.8-28.2-62.9-62.9-62.9c-3,0-6,0.2-8.9,0.6v220.9h55.9
	c31.4,0,56.9-25.5,56.9-56.9S357.7,246.1,326.3,246.1z"/>
<circle class="st5" cx="293.9" cy="186.6" r="11.2"/>
<path class="st6" d="M204.8,328.5h89.9c19.9,0,36-16.1,36-36l0,0c0-19.9-16.1-36-36-36h-89.9c0,0-32.3,0-54-36
	C150.8,220.6,140.8,328.5,204.8,328.5z"/>
<path class="st7" d="M294.7,256.5h-24.4v71.9h24.4c19.9,0,36-16.1,36-36S314.6,256.5,294.7,256.5z"/>
</svg>
