<?xml version="1.0" encoding="utf-8"?>
<!-- Made by Synel - SVG Version: 6.00 Build 0)  -->
<svg version="1.1" id="Layer_1" xmlns="http://www.w3.org/2000/svg" xmlns:xlink="http://www.w3.org/1999/xlink" x="0px" y="0px"
	 viewBox="0 0 512 512" style="enable-background:new 0 0 512 512;" xml:space="preserve">
<style type="text/css">
	.st0{fill:#E4F4F9;}
	.st1{fill:#ECF0F1;}
	.st2{fill:#BDC3C7;}
	.st3{fill:#4F596E;}
	.st4{fill:#B0D3F0;}
</style>
<path class="st0" d="M282.5,164.2v-40.6h-8.8V79.4h8.8V35.3H158.9v44.1h8.8v44.1h-8.8v40.6c-46.8,23-79.4,70.6-79.4,127.1
	c0,77.7,63.6,141.2,141.2,141.2S361.9,369,361.9,291.3C361.9,235.7,329.3,187.1,282.5,164.2"/>
<path class="st1" d="M423.7,141.2h61.8c5.3,0,8.8-4.4,8.8-8.8v-53c0-5.3-3.5-8.8-8.8-8.8h-61.8c-5.3,0-8.8,4.4-8.8,8.8v53
	C414.9,136.8,419.3,141.2,423.7,141.2"/>
<g>
	<path class="st2" d="M423.7,70.6V35.3c0-5.3,3.5-8.8,8.8-8.8h44.1c5.3,0,8.8,3.5,8.8,8.8v35.3L423.7,70.6L423.7,70.6z"/>
	<polygon class="st2" points="423.7,459 485.5,459 485.5,141.2 423.7,141.2 	"/>
</g>
<polygon class="st1" points="309,123.6 414.9,123.6 414.9,88.3 309,88.3 "/>
<g>
	<path class="st3" d="M163.3,141.2h-26.5c-2.6,0-4.4-1.8-4.4-4.4V75c0-2.6,1.8-4.4,4.4-4.4h26.5c2.6,0,4.4,1.8,4.4,4.4v61.8
		C167.7,139.5,166,141.2,163.3,141.2"/>
	<path class="st3" d="M304.6,141.2h-26.5c-2.6,0-4.4-1.8-4.4-4.4V75c0-2.6,1.8-4.4,4.4-4.4h26.5c2.6,0,4.4,1.8,4.4,4.4v61.8
		C309,139.5,307.2,141.2,304.6,141.2"/>
</g>
<path class="st1" d="M485.5,512H309l-17.7-17.7h-61.8L211.9,512H26.5C11.5,512,0,500.5,0,485.5S11.5,459,26.5,459h459
	c15,0,26.5,11.5,26.5,26.5S500.5,512,485.5,512"/>
<g>
	<path class="st4" d="M282.5,35.3H158.9c-9.7,0-17.7-7.9-17.7-17.7S149.2,0,158.9,0h123.6c9.7,0,17.7,7.9,17.7,17.7
		S292.2,35.3,282.5,35.3"/>
	<path class="st4" d="M361.9,286.9c-6.2,3.5-12.4,7.9-17.7,13.2c-39.7,36.2-94.5,11.5-132.4-26.5c-36.2-31.8-92.7-35.3-129.8-9.7
		c-1.8,8.8-2.6,17.7-2.6,27.4c0,77.7,63.6,141.2,141.2,141.2S361.9,369,361.9,291.3C361.9,289.5,361.9,287.8,361.9,286.9"/>
</g>
</svg>
