<?xml version="1.0" encoding="utf-8"?>
<!-- Made by Synel - SVG Version: 6.00 Build 0)  -->
<svg version="1.1" id="Layer_1" xmlns="http://www.w3.org/2000/svg" xmlns:xlink="http://www.w3.org/1999/xlink" x="0px" y="0px"
	 viewBox="0 0 512 512" style="enable-background:new 0 0 512 512;" xml:space="preserve">
<style type="text/css">
	.st0{fill:#B0B6BB;}
	.st1{fill:#E8EDEE;}
	.st2{fill:#434C6D;}
</style>
<g>
	<g>
		<polygon class="st0" points="65.5,141.1 38.6,114.1 51.3,101.4 78.2,128.4 		"/>
		<path class="st0" d="M503,332.4h-18c0-19.8-16.1-35.9-35.9-35.9v-18C478.8,278.5,503,302.6,503,332.4"/>
		<polygon class="st0" points="485.1,359.3 503,359.3 503,332.4 485.1,332.4 		"/>
	</g>
	<path class="st1" d="M458.1,332.4h-35.9v-53.9c0-9.9,8-18,18-18s18,8,18,18V332.4z"/>
	<g>
		<path class="st2" d="M125.8,386.2c0,34.7-28.2,62.9-62.9,62.9S0,421,0,386.2s28.2-62.9,62.9-62.9S125.8,351.5,125.8,386.2"/>
		<path class="st2" d="M512,386.2c0,34.7-28.2,62.9-62.9,62.9s-62.9-28.2-62.9-62.9s28.2-62.9,62.9-62.9S512,351.5,512,386.2"/>
	</g>
	<path class="st1" d="M106.8,341.3c9.6,9.4,16.2,21.9,18.2,35.9H387c2-14,8.6-26.5,18.2-35.9H106.8z"/>
	<polygon class="st2" points="134.7,341.3 179.6,341.3 179.6,296.4 134.7,296.4 	"/>
	<path class="st0" d="M215.6,341.3h-35.9v-63.3c0-4.8,3.9-8.6,8.6-8.6H207c4.8,0,8.6,3.9,8.6,8.6L215.6,341.3L215.6,341.3z"/>
	<path class="st2" d="M395.2,215.6c0-9.9-8.1-18-18-18c-9.9,0-18,8.1-18,18v26.9l-28.6,62.9h-61.2c-9.9,0-18,8.1-18,18s8.1,18,18,18
		h44.9h26.9h18l35.9-89.8v-9L395.2,215.6L395.2,215.6z"/>
	<g>
		<path class="st1" d="M89.8,386.2c0,14.9-12.1,26.9-26.9,26.9s-26.9-12.1-26.9-26.9s12.1-26.9,26.9-26.9S89.8,371.4,89.8,386.2"/>
		<path class="st1" d="M476.1,386.2c0,14.9-12.1,26.9-26.9,26.9s-26.9-12.1-26.9-26.9s12.1-26.9,26.9-26.9S476.1,371.4,476.1,386.2"
			/>
	</g>
	<g>
		<path class="st0" d="M386.2,386.2c0-3.1,0.3-6,0.7-9h-63.6v7.3c0,15.8,12.8,28.6,28.6,28.6h40.4
			C388.5,405,386.2,395.9,386.2,386.2"/>
		<path class="st0" d="M125,377.3c0.4,2.9,0.7,5.9,0.7,9c0,9.7-2.2,18.8-6.1,26.9h67.3c15.8,0,28.6-12.8,28.6-28.6v-7.3L125,377.3
			L125,377.3z"/>
		<path class="st0" d="M143.7,341.3h-18V206.6c0-5.9-13.9-20.6-19.8-25.1l11-14.2c2.2,1.7,26.8,22.3,26.8,39.4L143.7,341.3
			L143.7,341.3z"/>
	</g>
	<path class="st1" d="M27.9,179.6c24.6,24.6,64.4,24.6,88.9,0c24.6-24.6,24.6-64.4,0-88.9L27.9,179.6z"/>
	<g>
		<polygon class="st2" points="44.9,116.8 9,116.8 0,107.8 0,71.9 9,62.9 44.9,62.9 53.9,71.9 53.9,107.8 		"/>
		<path class="st2" d="M206.6,269.5h-18v-26.9c0-17,19.3-32.4,21.5-34.1l11,14.2c-5.8,4.5-14.5,14-14.5,19.8L206.6,269.5
			L206.6,269.5z"/>
		<path class="st2" d="M233.6,242.5c-2.7,0-5.4-1.2-7.2-3.6L199.4,203c-3-4-2.2-9.6,1.8-12.6c4-3,9.6-2.2,12.6,1.8l26.9,35.9
			c3,4,2.2,9.6-1.8,12.6C237.3,241.9,235.4,242.5,233.6,242.5"/>
	</g>
</g>
</svg>
