<?xml version="1.0" encoding="utf-8"?>
<!-- Made by Synel - SVG Version: 6.00 Build 0)  -->
<svg version="1.1" id="Layer_1" xmlns="http://www.w3.org/2000/svg" xmlns:xlink="http://www.w3.org/1999/xlink" x="0px" y="0px"
	 viewBox="0 0 512 512" style="enable-background:new 0 0 512 512;" xml:space="preserve">
<style type="text/css">
	.st0{fill:#414D53;}
	.st1{fill:#57676E;}
	.st2{fill:#748993;}
	.st3{fill:#A2B1B7;}
	.st4{fill:#E0315B;}
	.st5{fill:#EA5A7D;}
	.st6{fill:#FEEB5C;}
</style>
<path class="st0" d="M288.7,179.7c0-9-7.4-16.3-16.3-16.3H256l-10.9,54.5h43.6L288.7,179.7L288.7,179.7z"/>
<path class="st1" d="M239.7,163.4c-9,0-16.3,7.4-16.3,16.3v38.1H256v-54.5H239.7z"/>
<path class="st2" d="M389.4,196.1v228.8c63.2,0,114.4-51.2,114.4-114.4S452.6,196.1,389.4,196.1z"/>
<path class="st3" d="M471.1,310.5c0-63.2-36.6-114.4-81.7-114.4H122.6c-63.2,0-114.4,51.2-114.4,114.4s51.2,114.4,114.4,114.4
	c41.2,0,77.3-21.8,97.4-54.5h72c20.1,32.7,56.2,54.5,97.4,54.5C434.6,424.9,471.1,373.6,471.1,310.5z"/>
<polygon class="st4" points="155.2,294.1 144.3,310.5 155.2,326.8 187.9,326.8 187.9,294.1 "/>
<polygon class="st5" points="138.9,294.1 138.9,245.1 106.2,245.1 106.2,294.1 57.2,294.1 57.2,326.8 106.2,326.8 106.2,375.8 
	138.9,375.8 138.9,326.8 155.2,326.8 155.2,294.1 "/>
<g>
	<circle class="st6" cx="389.4" cy="359.5" r="16.3"/>
	<circle class="st6" cx="389.4" cy="261.4" r="16.3"/>
	<circle class="st6" cx="340.4" cy="310.5" r="16.3"/>
	<circle class="st6" cx="438.5" cy="310.5" r="16.3"/>
</g>
<path d="M389.4,187.9h-92.6v-8.2c0-13.5-11-24.5-24.5-24.5h-8.2v-35.4c0-13.5,11-24.5,24.5-24.5h138.9c4.5,0,8.2-3.7,8.2-8.2
	s-3.7-8.2-8.2-8.2H288.7c-22.5,0-40.9,18.3-40.9,40.9v35.4h-8.2c-13.5,0-24.5,11-24.5,24.5v8.2h-92.6C55,187.9,0,242.9,0,310.5
	S55,433,122.6,433c41.3,0,79.1-20.3,101.9-54.5h63.1c22.8,34.2,60.6,54.5,101.9,54.5C457,433,512,378,512,310.5
	S457,187.9,389.4,187.9z M231.5,179.7c0-4.5,3.7-8.2,8.2-8.2h32.7c4.5,0,8.2,3.7,8.2,8.2v8.2h-49L231.5,179.7L231.5,179.7z
	 M389.4,416.7c-37.1,0-71-18.9-90.5-50.6c-1.5-2.4-4.1-3.9-7-3.9h-72c-2.8,0-5.5,1.5-7,3.9c-19.5,31.7-53.3,50.6-90.5,50.6
	C64,416.7,16.3,369,16.3,310.5S64,204.3,122.6,204.3h266.9c58.6,0,106.2,47.6,106.2,106.2S448,416.7,389.4,416.7z"/>
<path d="M187.9,286h-40.9v-40.9c0-4.5-3.7-8.2-8.2-8.2h-32.7c-4.5,0-8.2,3.7-8.2,8.2V286H57.2c-4.5,0-8.2,3.7-8.2,8.2v32.7
	c0,4.5,3.7,8.2,8.2,8.2H98v40.9c0,4.5,3.7,8.2,8.2,8.2h32.7c4.5,0,8.2-3.7,8.2-8.2V335h40.9c4.5,0,8.2-3.7,8.2-8.2v-32.7
	C196.1,289.6,192.4,286,187.9,286z M179.7,318.6h-40.9c-4.5,0-8.2,3.7-8.2,8.2v40.9h-16.3v-40.9c0-4.5-3.7-8.2-8.2-8.2H65.4v-16.3
	h40.9c4.5,0,8.2-3.7,8.2-8.2v-40.9h16.3v40.9c0,4.5,3.7,8.2,8.2,8.2h40.9L179.7,318.6L179.7,318.6z"/>
<path d="M264.2,302.3h-16.3c-4.5,0-8.2,3.7-8.2,8.2s3.7,8.2,8.2,8.2h16.3c4.5,0,8.2-3.7,8.2-8.2C272.3,306,268.7,302.3,264.2,302.3z
	"/>
<path d="M389.4,335c-13.5,0-24.5,11-24.5,24.5s11,24.5,24.5,24.5s24.5-11,24.5-24.5S403,335,389.4,335z M389.4,367.7
	c-4.5,0-8.2-3.7-8.2-8.2s3.7-8.2,8.2-8.2s8.2,3.7,8.2,8.2S394,367.7,389.4,367.7z"/>
<path d="M389.4,286c13.5,0,24.5-11,24.5-24.5c0-13.5-11-24.5-24.5-24.5s-24.5,11-24.5,24.5C364.9,275,375.9,286,389.4,286z
	 M389.4,253.3c4.5,0,8.2,3.7,8.2,8.2c0,4.5-3.7,8.2-8.2,8.2s-8.2-3.7-8.2-8.2C381.3,256.9,384.9,253.3,389.4,253.3z"/>
<path d="M340.4,286c-13.5,0-24.5,11-24.5,24.5s11,24.5,24.5,24.5s24.5-11,24.5-24.5S353.9,286,340.4,286z M340.4,318.6
	c-4.5,0-8.2-3.7-8.2-8.2s3.7-8.2,8.2-8.2s8.2,3.7,8.2,8.2S344.9,318.6,340.4,318.6z"/>
<path d="M438.5,286c-13.5,0-24.5,11-24.5,24.5s11,24.5,24.5,24.5s24.5-11,24.5-24.5S452,286,438.5,286z M438.5,318.6
	c-4.5,0-8.2-3.7-8.2-8.2s3.7-8.2,8.2-8.2s8.2,3.7,8.2,8.2S443,318.6,438.5,318.6z"/>
</svg>
