<?xml version="1.0" encoding="utf-8"?>
<!-- Made by Synel - SVG Version: 6.00 Build 0)  -->
<svg version="1.1" id="Layer_1" xmlns="http://www.w3.org/2000/svg" xmlns:xlink="http://www.w3.org/1999/xlink" x="0px" y="0px"
	 viewBox="0 0 512 512" style="enable-background:new 0 0 512 512;" xml:space="preserve">
<style type="text/css">
	.st0{fill:#FD5E95;}
	.st1{fill:#7DBB34;}
	.st2{fill:#60A333;}
	.st3{fill:#A6DE64;}
	.st4{fill:#D14D7B;}
	.st5{fill:#FFE88A;}
	.st6{fill:#FFF1B5;}
	.st7{fill:#F9D84E;}
	.st8{fill:#EB9617;}
</style>
<rect x="119.5" y="452.3" class="st0" width="264.5" height="34.1"/>
<rect x="162.1" y="264.5" class="st1" width="187.7" height="162.1"/>
<rect x="162.1" y="264.5" class="st2" width="17.1" height="162.1"/>
<rect x="264.5" y="281.6" class="st3" width="25.6" height="145.1"/>
<rect x="162.1" y="264.5" class="st2" width="187.7" height="25.6"/>
<path class="st3" d="M375.5,273.1H136.5c-4.7,0-8.5-3.8-8.5-8.5v-68.3c0-4.7,3.8-8.5,8.5-8.5h238.9c4.7,0,8.5,3.8,8.5,8.5v68.3
	C384,269.2,380.2,273.1,375.5,273.1z"/>
<path class="st2" d="M136.5,187.7c-4.7,0-8.5,3.8-8.5,8.5v68.3c0,4.7,3.8,8.5,8.5,8.5h8.5v-85.3H136.5z"/>
<g>
	<rect x="145.1" y="187.7" class="st1" width="128.4" height="85.3"/>
	<path class="st1" d="M375.5,187.7h-76.8v85.3h76.8c4.7,0,8.5-3.8,8.5-8.5v-68.3C384,191.6,380.2,187.7,375.5,187.7z"/>
</g>
<path class="st0" d="M145.1,512H59.7c-4.7,0-8.5-3.8-8.5-8.5v-34.1c0-4.7,3.8-8.5,8.5-8.5h85.3c4.7,0,8.5,3.8,8.5,8.5v34.1
	C153.6,508.2,149.8,512,145.1,512z"/>
<path class="st4" d="M70.4,494.9c-1.2,0-2.1-1-2.1-2.1v-32h-8.5c-4.7,0-8.5,3.8-8.5,8.5v34.1c0,4.7,3.8,8.5,8.5,8.5h85.3
	c4.7,0,8.5-3.8,8.5-8.5v-8.5H70.4z"/>
<path class="st0" d="M247.5,512h-85.3c-4.7,0-8.5-3.8-8.5-8.5v-34.1c0-4.7,3.8-8.5,8.5-8.5h85.3c4.7,0,8.5,3.8,8.5,8.5v34.1
	C256,508.2,252.2,512,247.5,512z"/>
<path class="st4" d="M172.8,494.9c-1.2,0-2.1-1-2.1-2.1v-32h-8.5c-4.7,0-8.5,3.8-8.5,8.5v34.1c0,4.7,3.8,8.5,8.5,8.5h85.3
	c4.7,0,8.5-3.8,8.5-8.5v-8.5H172.8z"/>
<path class="st0" d="M349.9,512h-85.3c-4.7,0-8.5-3.8-8.5-8.5v-34.1c0-4.7,3.8-8.5,8.5-8.5h85.3c4.7,0,8.5,3.8,8.5,8.5v34.1
	C358.4,508.2,354.6,512,349.9,512z"/>
<path class="st4" d="M275.2,494.9c-1.2,0-2.1-1-2.1-2.1v-32h-8.5c-4.7,0-8.5,3.8-8.5,8.5v34.1c0,4.7,3.8,8.5,8.5,8.5h85.3
	c4.7,0,8.5-3.8,8.5-8.5v-8.5H275.2z"/>
<path class="st0" d="M452.3,512h-85.3c-4.7,0-8.5-3.8-8.5-8.5v-34.1c0-4.7,3.8-8.5,8.5-8.5h85.3c4.7,0,8.5,3.8,8.5,8.5v34.1
	C460.8,508.2,457,512,452.3,512z"/>
<path class="st4" d="M377.6,494.9c-1.2,0-2.1-1-2.1-2.1v-32h-8.5c-4.7,0-8.5,3.8-8.5,8.5v34.1c0,4.7,3.8,8.5,8.5,8.5h85.3
	c4.7,0,8.5-3.8,8.5-8.5v-8.5H377.6z"/>
<path class="st0" d="M196.3,460.8h-85.3c-4.7,0-8.5-3.8-8.5-8.5v-34.1c0-4.7,3.8-8.5,8.5-8.5h85.3c4.7,0,8.5,3.8,8.5,8.5v34.1
	C204.8,457,201,460.8,196.3,460.8z"/>
<path class="st4" d="M121.6,443.7c-1.2,0-2.1-1-2.1-2.1v-32h-8.5c-4.7,0-8.5,3.8-8.5,8.5v34.1c0,4.7,3.8,8.5,8.5,8.5h85.3
	c4.7,0,8.5-3.8,8.5-8.5v-8.5H121.6z"/>
<path class="st0" d="M298.7,460.8h-85.3c-4.7,0-8.5-3.8-8.5-8.5v-34.1c0-4.7,3.8-8.5,8.5-8.5h85.3c4.7,0,8.5,3.8,8.5,8.5v34.1
	C307.2,457,303.4,460.8,298.7,460.8z"/>
<path class="st4" d="M224,443.7c-1.2,0-2.1-1-2.1-2.1v-32h-8.5c-4.7,0-8.5,3.8-8.5,8.5v34.1c0,4.7,3.8,8.5,8.5,8.5h85.3
	c4.7,0,8.5-3.8,8.5-8.5v-8.5H224z"/>
<path class="st0" d="M401.1,460.8h-85.3c-4.7,0-8.5-3.8-8.5-8.5v-34.1c0-4.7,3.8-8.5,8.5-8.5h85.3c4.7,0,8.5,3.8,8.5,8.5v34.1
	C409.6,457,405.8,460.8,401.1,460.8z"/>
<path class="st4" d="M326.4,443.7c-1.2,0-2.1-1-2.1-2.1v-32h-8.5c-4.7,0-8.5,3.8-8.5,8.5v34.1c0,4.7,3.8,8.5,8.5,8.5h85.3
	c4.7,0,8.5-3.8,8.5-8.5v-8.5H326.4z"/>
<path class="st5" d="M281.6,0h-51.2v170.7h51.2c23.6,0,42.7-38.2,42.7-85.3S305.2,0,281.6,0z"/>
<path class="st6" d="M230.4,102.4h93c0.6-5.5,0.9-11.2,0.9-17.1s-0.3-11.6-0.9-17.1h-93V102.4z"/>
<ellipse class="st7" cx="230.4" cy="85.3" rx="42.7" ry="85.3"/>
<path class="st8" d="M238.9,76.8h-8.5v-8.5h8.5c4.7,0,8.5-3.8,8.5-8.5s-3.8-8.5-8.5-8.5v-8.5c0-4.7-3.8-8.5-8.5-8.5
	c-4.7,0-8.5,3.8-8.5,8.5v8.5c-4.7,0-8.5,3.8-8.5,8.5v25.6c0,4.7,3.8,8.5,8.5,8.5h8.5v8.5h-8.5c-4.7,0-8.5,3.8-8.5,8.5
	s3.8,8.5,8.5,8.5v8.5c0,4.7,3.8,8.5,8.5,8.5c4.7,0,8.5-3.8,8.5-8.5v-8.5c4.7,0,8.5-3.8,8.5-8.5V85.3
	C247.5,80.6,243.6,76.8,238.9,76.8z"/>
</svg>
