<?xml version="1.0" encoding="utf-8"?>
<!-- Made by Synel - SVG Version: 6.00 Build 0)  -->
<svg version="1.1" id="Capa_1" xmlns="http://www.w3.org/2000/svg" xmlns:xlink="http://www.w3.org/1999/xlink" x="0px" y="0px"
	 viewBox="0 0 409.3 409.3" style="enable-background:new 0 0 409.3 409.3;" xml:space="preserve">
<style type="text/css">
	.st0{fill:none;}
	.st1{fill:#73D0F4;}
	.st2{fill:#3D6889;}
</style>
<g>
	<g>
		<path class="st0" d="M70.9,222.9c-9.9,12.2-18.5,24.3-25.7,36.1c-21.3,35.3-26.9,64.2-15.5,79.2s40.8,17.2,80.5,5.9
			c22.3-6.3,46.3-16.4,70.8-29.6c-13.2-8.5-26.3-17.7-39.3-27.6C115.4,266.7,91.4,245,70.9,222.9z"/>
		<path class="st0" d="M322.5,204.6c-19.9-21.7-43.5-43.2-69.6-63.2c-15.8-12.1-32-23.2-48.3-33.1c-15.8,9.6-31.9,20.6-48.2,33.1
			c-26.2,20-49.8,41.5-69.7,63.2c19.9,21.7,43.5,43.2,69.7,63.2c16.3,12.5,32.5,23.5,48.3,33.1c16.1-9.9,32.3-21,48.3-33.1
			C279,247.8,302.6,226.4,322.5,204.6z M204.6,258.4c-29.6,0-53.8-24.1-53.8-53.8c0-29.6,24.1-53.8,53.8-53.8
			c29.6,0,53.8,24.1,53.8,53.8C258.4,234.3,234.3,258.4,204.6,258.4z"/>
		<path class="st0" d="M338.3,222.9c-20.5,22.1-44.4,43.8-70.9,64c-12.9,9.9-26.1,19.1-39.3,27.6c45.8,24.6,86.7,36.6,115.1,36.6
			c17.1,0,29.7-4.3,36.2-12.9c11.5-15,5.8-43.9-15.5-79.2C356.9,247.2,348.2,235.1,338.3,222.9z"/>
		<path class="st1" d="M204.6,174.9c-16.4,0-29.8,13.4-29.8,29.8s13.4,29.8,29.8,29.8s29.8-13.4,29.8-29.8S221,174.9,204.6,174.9z"
			/>
		<path class="st2" d="M204.6,150.9c-29.6,0-53.8,24.1-53.8,53.8s24.1,53.8,53.8,53.8c29.6,0,53.8-24.1,53.8-53.8
			C258.4,175,234.3,150.9,204.6,150.9z M204.6,234.4c-16.4,0-29.8-13.4-29.8-29.8s13.4-29.8,29.8-29.8s29.8,13.4,29.8,29.8
			C234.4,221.1,221,234.4,204.6,234.4z"/>
		<path class="st2" d="M354.4,204.6c6.1-7.3,11.8-14.7,17-22.1c3.2-4.4,6.2-8.9,9-13.2c3.6-5.6,2-13-3.6-16.6
			c-5.6-3.6-13-2-16.6,3.6c-2.6,4-5.4,8.1-8.3,12.2c-4.2,5.9-8.8,11.8-13.6,17.7c-20.5-22.1-44.4-43.8-70.9-64
			c-12.9-9.8-26-19.1-39.3-27.6c73.4-39.4,133.9-46.5,151.3-23.8c3.8,5,5.8,11.6,5.8,19.7c0,6.6,5.4,12,12,12h0c6.6,0,12-5.4,12-12
			c0-13.4-3.6-24.9-10.7-34.2c-18-23.6-55.7-28.7-106.1-14.4c-27.6,7.8-57.6,21-87.9,38.4c-13.4-7.7-26.8-14.6-39.9-20.5
			c-6-2.7-13.1-0.1-15.9,6c-2.7,6-0.1,13.1,6,15.9c8.6,3.9,17.4,8.3,26.2,13c-13.2,8.5-26.3,17.7-39.2,27.6
			c-26.4,20.2-50.4,41.9-70.9,64c-9.9-12.2-18.5-24.3-25.7-36.1c-21.3-35.3-26.9-64.2-15.5-79.2c8.6-11.2,27.8-15.4,54.2-11.6
			c6.6,0.9,12.6-3.6,13.6-10.2c0.9-6.6-3.6-12.6-10.2-13.6C42,29.2,20.6,43.4,10.7,56.5c-18,23.6-13.1,61.3,14,106.2
			c8.3,13.8,18.5,27.9,30.2,42c-11.7,14.1-21.9,28.2-30.2,42c-27.1,44.9-32,82.6-14,106.2c11.3,14.8,30.4,22.4,55.5,22.4
			c14.9,0,31.8-2.6,50.6-8c27.6-7.8,57.6-21,87.8-38.4c30.3,17.4,60.2,30.5,87.8,38.4c18.7,5.3,35.7,8,50.6,8
			c25.1,0,44.2-7.5,55.5-22.4c18-23.6,13.1-61.3-14-106.2C376.2,232.8,366.1,218.7,354.4,204.6z M110.2,344.1
			c-39.7,11.3-69,9.1-80.5-5.9c-11.5-15-5.8-43.9,15.5-79.2c7.2-11.9,15.8-24,25.7-36.1c20.5,22.1,44.5,43.8,70.9,64
			c12.9,9.9,26.1,19.1,39.3,27.6C156.5,327.7,132.5,337.8,110.2,344.1z M156.3,267.8c-26.2-20-49.8-41.5-69.7-63.2
			c19.9-21.7,43.5-43.2,69.7-63.2c16.3-12.5,32.5-23.5,48.2-33.1c16.3,9.9,32.5,21.1,48.3,33.1c26.2,20,49.8,41.5,69.6,63.2
			c-19.9,21.8-43.5,43.2-69.7,63.2C237,280,220.8,291.1,204.6,301C188.8,291.3,172.7,280.3,156.3,267.8z M379.5,338.2
			c-6.5,8.5-19.1,12.9-36.2,12.9c-28.4,0-69.2-12-115.1-36.6c13.2-8.5,26.3-17.7,39.3-27.6c26.4-20.2,50.4-41.8,70.9-64
			c9.9,12.1,18.5,24.3,25.7,36.1C385.3,294.4,391,323.2,379.5,338.2z"/>
		<path class="st2" d="M122.4,68c3.2,0,6.2-1.3,8.5-3.5c2.2-2.2,3.5-5.3,3.5-8.5c0-3.2-1.3-6.3-3.5-8.5c-2.2-2.2-5.3-3.5-8.5-3.5
			c-3.2,0-6.3,1.3-8.5,3.5c-2.2,2.2-3.5,5.3-3.5,8.5s1.3,6.3,3.5,8.5C116.2,66.7,119.3,68,122.4,68z"/>
		<path class="st2" d="M386.8,116.4c-3.2,0-6.3,1.3-8.5,3.5c-2.2,2.2-3.5,5.3-3.5,8.5c0,3.2,1.3,6.3,3.5,8.5
			c2.2,2.2,5.3,3.5,8.5,3.5c3.2,0,6.3-1.3,8.5-3.5c2.2-2.2,3.5-5.3,3.5-8.5c0-3.2-1.3-6.3-3.5-8.5
			C393.1,117.7,390,116.4,386.8,116.4z"/>
	</g>
</g>
</svg>
