<?xml version="1.0" encoding="utf-8"?>
<!-- Made by Synel - SVG Version: 6.00 Build 0)  -->
<svg version="1.1" id="Layer_1" xmlns="http://www.w3.org/2000/svg" xmlns:xlink="http://www.w3.org/1999/xlink" x="0px" y="0px"
	 viewBox="0 0 473.9 473.9" style="enable-background:new 0 0 473.9 473.9;" xml:space="preserve">
<style type="text/css">
	.st0{fill:#9ACA42;}
	.st1{fill:#6F4D21;}
	.st2{fill:#AA7435;}
	.st3{fill:#B9803D;}
	.st4{fill:#C28B4F;}
	.st5{fill:#BB996C;}
	.st6{fill:#805C26;}
	.st7{fill:#765422;}
	.st8{fill:#946F3B;}
	.st9{fill:#31312F;}
	.st10{fill:#1D1D1D;}
</style>
<circle class="st0" cx="237" cy="237" r="237"/>
<polygon class="st1" points="168.4,201.5 144.3,225.5 100,214.7 90,217.6 85.8,225.4 90.3,231.9 148.6,254.6 197.6,234.1 "/>
<path class="st2" d="M104.4,217.1c-2.1,11.7-14.8,23.8-27.3,21.5c-12.6-2.2-20.2-18-18.1-29.7c2.1-11.7,12.6-11.6,25.1-9.4
	S106.5,205.4,104.4,217.1z"/>
<path class="st3" d="M77.1,238.6c-12.6-2.2-20.2-18-18.1-29.7c2.1-11.7,12.6-11.6,25.1-9.4S89.7,240.9,77.1,238.6z"/>
<path class="st4" d="M77.1,238.6c-12.6-2.2-20.2-18-18.1-29.7c2.8-15.4,25.1-9.4,25.1-9.4C73.8,214.9,77.1,238.6,77.1,238.6z"/>
<path class="st5" d="M215,258c19.6,6.4,86.1,142.2,28.1,102c-19.4-13.5-41.6-36.5-66.2-73.9l-10.8-23.7
	C166.1,262.4,195.4,251.6,215,258z"/>
<g>
	<path class="st6" d="M187.7,162.4c0,0,25.3,6.4,49.9,32.5c0,0,19.5,1.6,39.2,8c19.6,6.4,87.4,49.7,57.6,152.9
		c0,0-33.4,44.3-91.3,4.1c-19.4-13.5-12.3-37.8-31.3-52.5c-19.1-14.8-45.8-45-45.8-45l-21-46.3L187.7,162.4z"/>
	<path class="st6" d="M391.3,138.4c0,0-61.7-19.5-78.6,27.5c-16.7,46.5,33.4,72.1,34.2,120.4c0.6,35.4-1.9,31.8-15.3,37.9
		C304,336.8,277.3,374,277.3,374s150.7,30.1,137.1-85c-5.3-44.4-59.9-66.4-49.1-94.7c10.7-28.3,25.2-14.4,40.1-7.9
		C424.5,194.5,413.8,144.4,391.3,138.4z"/>
</g>
<path class="st5" d="M358.3,185.4c-18.9,45.7,27.4,56.1,44.2,101.4c7.9,21.2,8.4,37.5,4.1,50l0.2,2.7c6.9-12.5,10.1-29,7.6-50.6
	c-5.3-44.4-59.9-66.4-49.1-94.7c10.7-28.3,25.2-14.4,40.1-7.9c7,3,10-1.8,9.9-9.5C415.3,176.8,370,157.3,358.3,185.4z"/>
<g>
	<polygon class="st6" points="159.7,218.8 135.5,242.8 91.2,232 81.2,235 77,242.7 81.5,249.2 139.8,271.9 188.8,251.4 	"/>
	<path class="st6" d="M250.2,277.5c-19.7-2-42.6,48.1-7.3,82.8c0,0-7.2,1.2-9.6,1.1c-2.5-0.1-7.8-1.7-7.8-1.7l-10,3.1l-1.9,8.7
		c0,0,20.6,7.1,38,8.2c17.5,1.1,57.9,3.8,69.6-19.6S275.3,280.1,250.2,277.5z"/>
</g>
<path class="st7" d="M182.3,119.5c8.6-11.1,26-12.1,29-9.8c3.8,3,4.3,17.8-4.3,28.9c-8.6,11.1-16.2,10.4-22.4,5.6
	C178.3,139.3,173.7,130.6,182.3,119.5z"/>
<path class="st6" d="M155.1,210.7c-39.9-7.1-65.6-50.2-63.7-60.8c2.5-13.7,39.6-34.8,79.6-27.6c39.9,7.1,48.3,27.4,44.3,49.8
	C211.3,194.5,195.1,217.9,155.1,210.7z"/>
<path class="st7" d="M92.6,157.4c-1.1-3.2-1.5-5.7-1.2-7.5c0.5-2.9,2.5-6.1,5.8-9.2C109.5,128.6,98.2,173.6,92.6,157.4z"/>
<path class="st8" d="M154.6,160.7c-9.6-1.7-15.6-13-15.1-15.9c0.7-3.7,9.7-9.4,19.3-7.7c9.6,1.7,11.5,7.1,10.5,13
	C168.2,156.2,164.1,162.5,154.6,160.7z"/>
<path class="st9" d="M154.6,157.5c-7.8-1.4-12.8-9.8-12.4-11.8c0.5-2.7,7.7-6.8,15.5-5.4c7.8,1.4,9.4,5.3,8.6,9.7
	C165.6,154.3,162.4,158.9,154.6,157.5z"/>
<path class="st10" d="M152.2,157.1c-7.8-1.4-4.7-18.6,3.1-17.2c7.8,1.4,9.4,5.3,8.6,9.7C163.1,153.9,160,158.4,152.2,157.1z"/>
<path class="st6" d="M169.4,112.6c5.4-14,22.8-20.4,26.5-19c4.8,1.8,9.9,16.8,4.5,30.9s-13.3,15.7-21.2,12.7
	C171.4,134.1,164.1,126.6,169.4,112.6z"/>
</svg>
