<?xml version="1.0" encoding="utf-8"?>
<!-- Made by Synel - SVG Version: 6.00 Build 0)  -->
<svg version="1.1" id="Layer_1" xmlns="http://www.w3.org/2000/svg" xmlns:xlink="http://www.w3.org/1999/xlink" x="0px" y="0px"
	 viewBox="0 0 506 506" style="enable-background:new 0 0 506 506;" xml:space="preserve">
<style type="text/css">
	.st0{fill:#324A5E;}
	.st1{fill:#E6E9EE;}
	.st2{fill:#ACB3BA;}
	.st3{fill:#54C0EB;}
	.st4{fill:#FF7058;}
</style>
<circle class="st0" cx="253" cy="253" r="253"/>
<path class="st1" d="M193.6,205.9v172.4c0,32.8,26.7,59.5,59.5,59.5s59.5-26.7,59.5-59.5V205.9H193.6z"/>
<g>
	<rect x="299.5" y="221.1" class="st2" width="13.1" height="7.8"/>
	<rect x="299.5" y="240.4" class="st2" width="13.1" height="7.8"/>
	<rect x="299.5" y="259.6" class="st2" width="13.1" height="7.8"/>
	<rect x="299.5" y="278.8" class="st2" width="13.1" height="7.8"/>
	<rect x="299.5" y="298.1" class="st2" width="13.1" height="7.8"/>
	<rect x="299.5" y="317.3" class="st2" width="13.1" height="7.8"/>
	<rect x="299.5" y="336.6" class="st2" width="13.1" height="7.8"/>
	<rect x="299.5" y="355.8" class="st2" width="13.1" height="7.8"/>
	<rect x="299.5" y="375" class="st2" width="13.1" height="7.8"/>
</g>
<g>
	<path class="st3" d="M222.5,91.3c-13.4-8.2-30.3-8.9-47.6-2l-1.7,0.7l0.2,1.8c1.6,18.5,9.9,33.3,23.3,41.5
		c7.3,4.5,15.6,6.7,24.5,6.7c7.4,0,15.2-1.6,23.1-4.8l1.7-0.7l-0.2-1.8C244.2,114.3,235.9,99.6,222.5,91.3z"/>
	<path class="st3" d="M330,62.1c-20.4-8.3-40.4-7.4-56.3,2.3s-25.7,27.2-27.5,49.1l-0.2,2.1l2,0.8c9.3,3.8,18.5,5.6,27.3,5.6
		c10.5,0,20.3-2.7,28.9-8c15.9-9.7,25.7-27.2,27.5-49.1l0.2-2.1L330,62.1z"/>
	<path class="st3" d="M226.7,153.5c-11-6.8-24.9-7.3-39-1.6l-1.7,0.7l0.2,1.8c1.3,15.2,8.1,27.3,19.1,34.1c6,3.7,12.8,5.5,20.1,5.5
		c6.1,0,12.5-1.3,18.9-3.9l1.7-0.7l-0.2-1.8C244.5,172.3,237.7,160.2,226.7,153.5z"/>
	<path class="st3" d="M278,138.3c-10.7,6.6-17.3,18.3-18.5,33l-0.2,1.8l1.7,0.7c6.2,2.5,12.4,3.8,18.3,3.8c7,0,13.7-1.8,19.5-5.4
		c10.7-6.6,17.3-18.3,18.5-33l0.2-1.8l-1.7-0.7C302.1,131.2,288.7,131.8,278,138.3z"/>
	<rect x="246" y="113.6" class="st3" width="14" height="152"/>
</g>
<path class="st4" d="M215.3,265.6v112.6c0,20.8,16.9,37.7,37.7,37.7s37.7-16.9,37.7-37.7V265.6H215.3z"/>
</svg>
