<?xml version="1.0" encoding="utf-8"?>
<!-- Made by Synel - SVG Version: 6.00 Build 0)  -->
<svg version="1.1" id="Layer_1" xmlns="http://www.w3.org/2000/svg" xmlns:xlink="http://www.w3.org/1999/xlink" x="0px" y="0px"
	 viewBox="0 0 512 512" style="enable-background:new 0 0 512 512;" xml:space="preserve">
<style type="text/css">
	.st0{fill:#E4EAF6;}
	.st1{fill:#464655;}
	.st2{fill:#FFFFFF;}
	.st3{fill:#82B9FF;}
	.st4{fill:#FF6464;}
</style>
<path class="st0" d="M340,472c0,17.6-14.4,32-32,32H204c-17.6,0-32-14.4-32-32V40c0-17.6,14.4-32,32-32h104c17.6,0,32,14.4,32,32
	V472z"/>
<path class="st1" d="M292,72h-24V48c0-4.4-3.6-8-8-8h-8c-4.4,0-8,3.6-8,8v24h-24c-4.4,0-8,3.6-8,8v8c0,4.4,3.6,8,8,8h24v24
	c0,4.4,3.6,8,8,8h8c4.4,0,8-3.6,8-8V96h24c4.4,0,8-3.6,8-8v-8C300,75.6,296.4,72,292,72z"/>
<circle class="st2" cx="256" cy="188" r="28"/>
<circle class="st3" cx="256" cy="348" r="22"/>
<circle class="st4" cx="256" cy="412" r="22"/>
<path d="M308,0H204c-22.1,0-40,17.9-40,40v432c0,22.1,17.9,40,40,40h104c22.1,0,40-17.9,40-40V40C348,17.9,330.1,0,308,0z M332,472
	c0,13.2-10.8,24-24,24H204c-13.2,0-24-10.8-24-24V40c0-13.2,10.8-24,24-24h104c13.2,0,24,10.8,24,24V472z M292,64h-16V48
	c0-8.8-7.2-16-16-16h-8c-8.8,0-16,7.2-16,16v16h-16c-8.8,0-16,7.2-16,16v8c0,8.8,7.2,16,16,16h16v16c0,8.8,7.2,16,16,16h8
	c8.8,0,16-7.2,16-16v-16h16c8.8,0,16-7.2,16-16v-8C308,71.2,300.8,64,292,64z M292,88h-24c-4.4,0-8,3.6-8,8v24h-8V96
	c0-4.4-3.6-8-8-8h-24v-8h24c4.4,0,8-3.6,8-8V48h8v24c0,4.4,3.6,8,8,8h24V88z M291.2,180.3c0.5,2.5,0.8,5.1,0.8,7.7
	c0,19.9-16.1,36-36,36s-36-16.1-36-36s16.1-36,36-36c2.6,0,5.2,0.3,7.7,0.8c4.3,0.9,7.1,5.2,6.1,9.5c-0.9,4.3-5.2,7.1-9.5,6.1
	c-1.4-0.3-2.8-0.5-4.3-0.5c-11,0-20,9-20,20s9,20,20,20c11,0,20-9,20-20c0-1.5-0.2-2.9-0.5-4.3c-0.9-4.3,1.8-8.6,6.1-9.5
	C286,173.2,290.2,176,291.2,180.3z M284,348c0,15.4-12.6,28-28,28s-28-12.6-28-28s12.6-28,28-28c4.4,0,8,3.6,8,8s-3.6,8-8,8
	c-6.6,0-12,5.4-12,12s5.4,12,12,12s12-5.4,12-12c0-4.4,3.6-8,8-8S284,343.6,284,348z M284,412c0,15.4-12.6,28-28,28s-28-12.6-28-28
	c0-15.4,12.6-28,28-28c4.4,0,8,3.6,8,8s-3.6,8-8,8c-6.6,0-12,5.4-12,12s5.4,12,12,12s12-5.4,12-12c0-4.4,3.6-8,8-8
	S284,407.6,284,412z"/>
</svg>
