<?xml version="1.0" encoding="utf-8"?>
<!-- Made by Synel - SVG Version: 6.00 Build 0)  -->
<svg version="1.1" id="Calque_1" xmlns="http://www.w3.org/2000/svg" xmlns:xlink="http://www.w3.org/1999/xlink" x="0px" y="0px"
	 viewBox="0 0 512 512" style="enable-background:new 0 0 512 512;" xml:space="preserve">
<style type="text/css">
	.st0{fill:#202020;}
	.st1{fill:#00C8D4;}
	.st2{fill:#FFFFFF;stroke:#000000;stroke-miterlimit:10;}
</style>
<circle class="st0" cx="256" cy="256" r="256"/>
<g>
	<path class="st1" d="M230.5,130.5v250c0,13.8,11.2,25,25,25h0h0c13.8,0,25-11.2,25-25v-250c0-13.8-11.2-25-25-25h0
		C241.7,105.5,230.5,116.7,230.5,130.5z"/>
	<g>
		<path class="st1" d="M224.5,130.5c0,37.7,0,75.4,0,113c0,44.6,0,89.2,0,133.8c0,9.7,2.5,19.2,10,26c14.7,13.3,39.1,9.6,48.4-8.3
			c3.3-6.4,3.6-13,3.6-20c0-7.2,0-14.5,0-21.7c0-53.1,0-106.1,0-159.2c0-19.1,0-38.1,0-57.2c0-5.8,0.2-11.5-1.9-17.2
			c-7.1-19-31.1-26.4-47.5-14.2C229.1,111.6,224.8,120.6,224.5,130.5c-0.2,7.7,11.8,7.7,12,0c0.5-19.3,27.1-26.3,36-8.5
			c2.3,4.6,2,9.3,2,14.2c0,17.3,0,34.5,0,51.8c0,51.5,0,103,0,154.5c0,12.5,0.2,25,0,37.5c-0.2,13.4-13.5,23.4-26.3,18.1
			c-8.6-3.6-11.7-11.8-11.7-20.4c0-41.2,0-82.5,0-123.7c0-40.5,0-80.9,0-121.4c0-0.7,0-1.4,0-2.1
			C236.5,122.8,224.5,122.8,224.5,130.5z"/>
	</g>
</g>
<path class="st2" d="M255.5,66.5"/>
<g>
	<path class="st1" d="M130.5,131.1v250c0,13.8,11.2,25,25,25h0h0c13.8,0,25-11.2,25-25v-250c0-13.8-11.2-25-25-25h0
		C141.7,106.1,130.5,117.3,130.5,131.1z"/>
	<g>
		<path class="st1" d="M124.5,131.1c0,37.7,0,75.4,0,113c0,44.6,0,89.2,0,133.8c0,9.7,2.5,19.2,10,26c14.7,13.3,39.1,9.6,48.4-8.3
			c3.3-6.4,3.6-13,3.6-20c0-7.2,0-14.5,0-21.7c0-53.1,0-106.1,0-159.2c0-19.1,0-38.1,0-57.2c0-5.8,0.2-11.5-1.9-17.2
			c-7.1-19-31.1-26.4-47.5-14.2C129.1,112.2,124.8,121.2,124.5,131.1c-0.2,7.7,11.8,7.7,12,0c0.5-19.3,27.1-26.3,36-8.5
			c2.3,4.6,2,9.3,2,14.2c0,17.3,0,34.5,0,51.8c0,51.5,0,103,0,154.5c0,12.5,0.2,25,0,37.5c-0.2,13.4-13.5,23.4-26.3,18.1
			c-8.6-3.6-11.7-11.8-11.7-20.4c0-41.2,0-82.5,0-123.7c0-40.5,0-80.9,0-121.4c0-0.7,0-1.4,0-2.1
			C136.5,123.4,124.5,123.4,124.5,131.1z"/>
	</g>
</g>
<g>
	<path class="st1" d="M304,139.5l54.2,244c3,13.5,16.3,22,29.8,19h0l0,0c13.5-3,22-16.3,19-29.8l-54.2-244c-3-13.5-16.3-22-29.8-19
		l0,0C309.5,112.7,301,126,304,139.5z"/>
	<g>
		<path class="st1" d="M298.2,141.1c8.1,36.5,16.2,72.9,24.3,109.4c9.7,43.8,19.5,87.5,29.2,131.3c2,9,6,16.9,13.9,22.2
			c17.2,11.5,41.3,2.1,46.9-17.5c2-7.1,0.7-13.8-0.8-20.7c-1.5-6.9-3-13.7-4.6-20.6c-11.5-51.7-23-103.5-34.5-155.2
			c-4.1-18.7-8.3-37.3-12.4-56c-1.1-5.1-2-10.2-4.6-14.9c-10-18.4-36.2-21.3-50.1-5.9C298.5,120.9,296.3,131.1,298.2,141.1
			c1.5,7.6,13,4.4,11.6-3.2c-3.9-20.2,23.7-31.5,34.7-13.9c2.3,3.7,3,8.3,3.9,12.5c3.8,17.2,7.6,34.4,11.5,51.6
			c11.1,49.8,22.1,99.7,33.2,149.5c2.7,12.1,5.7,24.1,8,36.2c2.7,13.8-9.7,26.6-23.7,22.6c-8.6-2.4-12.3-9.6-14.1-17.5
			c-9-40.3-17.9-80.6-26.9-120.9c-8.7-39.4-17.5-78.7-26.2-118.1c-0.1-0.7-0.3-1.3-0.4-2C308.1,130.4,296.5,133.6,298.2,141.1z"/>
	</g>
</g>
</svg>
