<?xml version="1.0" encoding="utf-8"?>
<!-- Author: Synel - SVG Version: 6.00 Build 0)  -->
<svg version="1.1" id="PyLiteEngine" xmlns="http://www.w3.org/2000/svg" xmlns:xlink="http://www.w3.org/1999/xlink" x="0px"
	 y="0px" viewBox="0 0 24 24" style="enable-background:new 0 0 24 24;" xml:space="preserve">
<style type="text/css">
	.st0{fill:#3774A7;}
	.st1{fill:#FFDB4D;}
</style>
<title>PyLiteEngine</title>
<path class="st0" d="M12,22.2c-0.2,0-0.3-0.1-0.5-0.1l-8-4.6C3.2,17.3,3,17,3,16.6V7.4C3,7,3.2,6.7,3.5,6.5l8-4.6
	c0.3-0.2,0.7-0.2,1,0l8,4.6C20.8,6.7,21,7,21,7.4v9.2c0,0.4-0.2,0.7-0.5,0.9l-8,4.6C12.3,22.2,12.2,22.2,12,22.2z M5,16l7,4l7-4V8
	l-7-4L5,8V16z"/>
<path class="st1" d="M17.8,8.6c-0.2-0.5-0.8-0.7-1.3-0.5L12,10.8L7.5,8.1C7.1,7.9,6.5,8.1,6.3,8.5C5.9,8.9,6,9.5,6.5,9.9l4.5,2.7V18
	c0,0.6,0.4,1,1,1s1-0.4,1-1v-5.4l4.5-2.7C17.9,9.6,18,9.1,17.8,8.6z"/>
</svg>
